<svg xmlns="http://www.w3.org/2000/svg" width="800" height="1000" viewBox="0 0 800 1000">
  <rect width="800" height="1000" fill="#08102a"/>
  <g opacity="0.25">
    <path d="M0 240C140 140 260 180 400 240c140 60 260 100 400 0v120C660 500 540 460 400 400 260 340 140 300 0 420z" fill="#ff8c42"/>
    <path d="M0 540c140-100 260-60 400 0 140 60 260 100 400 0v140C660 820 540 780 400 720 260 660 140 620 0 740z" fill="#2d5016"/>
  </g>
  <g transform="translate(190,250)">
    <rect x="-20" y="-20" width="460" height="620" rx="28" fill="rgba(255,255,255,0.08)" stroke="rgba(255,255,255,0.18)" stroke-width="2"/>
    <path d="M210 30c44 0 72 22 80 52l10 44 56 38v54l-62-22-14 216c-2 30-24 54-54 54H144c-30 0-52-24-54-54l-14-216-62 22v-54l56-38 10-44c8-30 36-52 80-52h26l12 38h66l12-38z"
          fill="rgba(255,255,255,0.92)"/>
    <text x="210" y="560" text-anchor="middle" font-family="Inter, Arial, sans-serif" font-size="18" font-weight="700" fill="rgba(255,255,255,0.92)">
      VINTAGE
    </text>
    <text x="210" y="585" text-anchor="middle" font-family="Inter, Arial, sans-serif" font-size="14" font-weight="600" fill="rgba(255,255,255,0.80)">
      Ceket / Jacket
    </text>
  </g>
</svg>

